<?xml version="1.0" encoding="utf-8"?>
<svg width="700pt" height="700pt" version="1.1" viewBox="0 0 700 700" xmlns="http://www.w3.org/2000/svg">
  <defs>
    <symbol id="p" overflow="visible">
      <path d="m29.312-1.75c-1.5117 0.78125-3.0898 1.3711-4.7344 1.7656-1.6367 0.40625-3.3398 0.60938-5.1094 0.60938-5.3125 0-9.5273-1.4844-12.641-4.4531-3.1055-2.9688-4.6562-7-4.6562-12.094s1.5508-9.125 4.6562-12.094c3.1133-2.9688 7.3281-4.4531 12.641-4.4531 1.7695 0 3.4727 0.19922 5.1094 0.59375 1.6445 0.39844 3.2227 0.99219 4.7344 1.7812v6.5938c-1.5312-1.0391-3.0391-1.8008-4.5156-2.2812-1.4805-0.48828-3.0391-0.73438-4.6719-0.73438-2.9375 0-5.2461 0.94531-6.9219 2.8281-1.6797 1.875-2.5156 4.4648-2.5156 7.7656 0 3.293 0.83594 5.8828 2.5156 7.7656 1.6758 1.875 3.9844 2.8125 6.9219 2.8125 1.6328 0 3.1914-0.23828 4.6719-0.71875 1.4766-0.48828 2.9844-1.2539 4.5156-2.2969z"/>
    </symbol>
    <symbol id="i" overflow="visible">
      <path d="m21.453-17.406c-0.67969-0.3125-1.3516-0.53906-2.0156-0.6875-0.65625-0.15625-1.3203-0.23438-1.9844-0.23438-1.9688 0-3.4844 0.63281-4.5469 1.8906-1.0547 1.2617-1.5781 3.0703-1.5781 5.4219v11.016h-7.6562v-23.922h7.6562v3.9219c0.97656-1.5625 2.1016-2.7031 3.375-3.4219 1.2812-0.71875 2.8125-1.0781 4.5938-1.0781 0.25 0 0.52344 0.011719 0.82812 0.03125 0.30078 0.023438 0.73438 0.070312 1.2969 0.14062z"/>
    </symbol>
    <symbol id="c" overflow="visible">
      <path d="m27.562-12.031v2.1875h-17.891c0.1875 1.793 0.83203 3.1367 1.9375 4.0312 1.1133 0.89844 2.6719 1.3438 4.6719 1.3438 1.6016 0 3.25-0.23438 4.9375-0.70312 1.6875-0.47656 3.4219-1.2031 5.2031-2.1719v5.8906c-1.8047 0.6875-3.6094 1.2031-5.4219 1.5469-1.8125 0.35156-3.6211 0.53125-5.4219 0.53125-4.3359 0-7.7031-1.0977-10.109-3.2969-2.3984-2.207-3.5938-5.2969-3.5938-9.2656 0-3.9062 1.1758-6.9727 3.5312-9.2031 2.3633-2.2383 5.6094-3.3594 9.7344-3.3594 3.7578 0 6.7695 1.1367 9.0312 3.4062 2.2578 2.2617 3.3906 5.2812 3.3906 9.0625zm-7.8594-2.5312c0-1.457-0.42969-2.6289-1.2812-3.5156-0.84375-0.89453-1.9492-1.3438-3.3125-1.3438-1.4922 0-2.6992 0.41797-3.625 1.25-0.91797 0.83594-1.4922 2.0391-1.7188 3.6094z"/>
    </symbol>
    <symbol id="h" overflow="visible">
      <path d="m14.391-10.766c-1.5938 0-2.793 0.27344-3.5938 0.8125-0.80469 0.54297-1.2031 1.3398-1.2031 2.3906 0 0.96875 0.32031 1.7305 0.96875 2.2812 0.64453 0.54297 1.5469 0.8125 2.7031 0.8125 1.4375 0 2.6445-0.51562 3.625-1.5469 0.98828-1.0312 1.4844-2.3203 1.4844-3.875v-0.875zm11.688-2.8906v13.656h-7.7031v-3.5469c-1.0312 1.4492-2.1875 2.5078-3.4688 3.1719s-2.8398 1-4.6719 1c-2.4805 0-4.4961-0.72266-6.0469-2.1719-1.543-1.4453-2.3125-3.3203-2.3125-5.625 0-2.8125 0.96094-4.8672 2.8906-6.1719 1.9375-1.3125 4.9688-1.9688 9.0938-1.9688h4.5156v-0.60938c0-1.207-0.48047-2.0938-1.4375-2.6562-0.94922-0.5625-2.4375-0.84375-4.4688-0.84375-1.6367 0-3.1562 0.16797-4.5625 0.5-1.4062 0.32422-2.7188 0.8125-3.9375 1.4688v-5.8281c1.6445-0.40625 3.2891-0.70703 4.9375-0.90625 1.6562-0.20703 3.3047-0.3125 4.9531-0.3125 4.3203 0 7.4375 0.85547 9.3438 2.5625 1.9141 1.6992 2.875 4.4609 2.875 8.2812z"/>
    </symbol>
    <symbol id="b" overflow="visible">
      <path d="m12.031-30.719v6.7969h7.875v5.4688h-7.875v10.141c0 1.1172 0.21875 1.8711 0.65625 2.2656 0.4375 0.38672 1.3125 0.57812 2.625 0.57812h3.9375v5.4688h-6.5625c-3.0234 0-5.1641-0.62891-6.4219-1.8906-1.2617-1.2578-1.8906-3.3984-1.8906-6.4219v-10.141h-3.7969v-5.4688h3.7969v-6.7969z"/>
    </symbol>
    <symbol id="g" overflow="visible">
      <path d="m19.953-20.422v-12.812h7.6875v33.234h-7.6875v-3.4531c-1.0547 1.4062-2.2148 2.4375-3.4844 3.0938-1.2734 0.65625-2.7422 0.98438-4.4062 0.98438-2.9492 0-5.3711-1.1719-7.2656-3.5156-1.8867-2.3438-2.8281-5.3594-2.8281-9.0469s0.94141-6.7031 2.8281-9.0469c1.8945-2.3438 4.3164-3.5156 7.2656-3.5156 1.6562 0 3.1172 0.33594 4.3906 1 1.2812 0.65625 2.4453 1.6836 3.5 3.0781zm-5.0469 15.484c1.6445 0 2.8945-0.59766 3.75-1.7969 0.86328-1.1953 1.2969-2.9297 1.2969-5.2031 0-2.2812-0.43359-4.0195-1.2969-5.2188-0.85547-1.1953-2.1055-1.7969-3.75-1.7969-1.625 0-2.8711 0.60156-3.7344 1.7969-0.85547 1.1992-1.2812 2.9375-1.2812 5.2188 0 2.2734 0.42578 4.0078 1.2812 5.2031 0.86328 1.1992 2.1094 1.7969 3.7344 1.7969z"/>
    </symbol>
    <symbol id="f" overflow="visible">
      <path d="m16.406-4.9375c1.6328 0 2.8828-0.59766 3.75-1.7969 0.86328-1.1953 1.2969-2.9297 1.2969-5.2031 0-2.2812-0.43359-4.0195-1.2969-5.2188-0.86719-1.1953-2.1172-1.7969-3.75-1.7969-1.6367 0-2.8906 0.60547-3.7656 1.8125-0.875 1.1992-1.3125 2.9336-1.3125 5.2031 0 2.2617 0.4375 3.9961 1.3125 5.2031 0.875 1.1992 2.1289 1.7969 3.7656 1.7969zm-5.0781-15.484c1.0508-1.3945 2.2188-2.4219 3.5-3.0781 1.2812-0.66406 2.7539-1 4.4219-1 2.9453 0 5.3672 1.1719 7.2656 3.5156 1.8945 2.3438 2.8438 5.3594 2.8438 9.0469s-0.94922 6.7031-2.8438 9.0469c-1.8984 2.3438-4.3203 3.5156-7.2656 3.5156-1.668 0-3.1406-0.33594-4.4219-1s-2.4492-1.6914-3.5-3.0781v3.4531h-7.6562v-33.234h7.6562z"/>
    </symbol>
    <symbol id="a" overflow="visible">
      <path d="m0.53125-23.922h7.6562l6.4219 16.234 5.4688-16.234h7.6562l-10.062 26.188c-1.0117 2.6641-2.1953 4.5234-3.5469 5.5781-1.3438 1.0625-3.1211 1.5938-5.3281 1.5938h-4.4219v-5.0156h2.3906c1.3008 0 2.2422-0.21094 2.8281-0.625 0.59375-0.40625 1.0547-1.1484 1.3906-2.2188l0.20312-0.65625z"/>
    </symbol>
    <symbol id="e" overflow="visible">
      <path d="m4.0156-31.891h8.2188v31.891h-8.2188z"/>
    </symbol>
    <symbol id="o" overflow="visible">
      <path d="m4.0156-31.891h13.656c4.0508 0 7.1602 0.90234 9.3281 2.7031 2.1758 1.8047 3.2656 4.3711 3.2656 7.7031 0 3.3438-1.0898 5.918-3.2656 7.7188-2.168 1.8047-5.2773 2.7031-9.3281 2.7031h-5.4375v11.062h-8.2188zm8.2188 5.9531v8.9062h4.5625c1.5938 0 2.8203-0.38281 3.6875-1.1562 0.875-0.78125 1.3125-1.8789 1.3125-3.2969 0-1.4258-0.4375-2.5234-1.3125-3.2969-0.86719-0.76953-2.0938-1.1562-3.6875-1.1562z"/>
    </symbol>
    <symbol id="d" overflow="visible">
      <path d="m3.4219-9.3125v-14.609h7.6875v2.3906c0 1.293-0.011719 2.918-0.03125 4.875-0.011719 1.9609-0.015625 3.2656-0.015625 3.9219 0 1.9297 0.046875 3.3125 0.14062 4.1562 0.10156 0.84375 0.28125 1.4609 0.53125 1.8438 0.3125 0.5 0.71875 0.88672 1.2188 1.1562 0.50781 0.27344 1.0938 0.40625 1.75 0.40625 1.5938 0 2.8438-0.60938 3.75-1.8281 0.91406-1.2266 1.375-2.9297 1.375-5.1094v-11.812h7.6406v23.922h-7.6406v-3.4531c-1.1562 1.3867-2.3828 2.4141-3.6719 3.0781-1.2812 0.66406-2.6992 1-4.25 1-2.7734 0-4.8828-0.84766-6.3281-2.5469-1.4375-1.6953-2.1562-4.1602-2.1562-7.3906z"/>
    </symbol>
    <symbol id="n" overflow="visible">
      <path d="m12.234-25.672v19.453h2.9531c3.3633 0 5.9297-0.83203 7.7031-2.5 1.7695-1.6641 2.6562-4.0859 2.6562-7.2656 0-3.1562-0.88672-5.5547-2.6562-7.2031-1.7617-1.6562-4.3281-2.4844-7.7031-2.4844zm-8.2188-6.2188h8.6719c4.8438 0 8.4453 0.34375 10.812 1.0312 2.375 0.6875 4.4102 1.8594 6.1094 3.5156 1.4883 1.4375 2.5977 3.1016 3.3281 4.9844 0.72656 1.875 1.0938 4 1.0938 6.375 0 2.4062-0.36719 4.5586-1.0938 6.4531-0.73047 1.8867-1.8398 3.5469-3.3281 4.9844-1.7109 1.6484-3.7617 2.8203-6.1562 3.5156-2.3984 0.6875-5.9844 1.0312-10.766 1.0312h-8.6719z"/>
    </symbol>
    <symbol id="m" overflow="visible">
      <path d="m3.6719-23.922h7.6562v23.922h-7.6562zm0-9.3125h7.6562v6.2344h-7.6562z"/>
    </symbol>
    <symbol id="l" overflow="visible">
      <path d="m23-23.172v6.2344c-1.0312-0.71875-2.0742-1.2422-3.125-1.5781-1.043-0.34375-2.125-0.51562-3.25-0.51562-2.1367 0-3.8047 0.625-5 1.875-1.1875 1.2422-1.7812 2.9805-1.7812 5.2188 0 2.2305 0.59375 3.9688 1.7812 5.2188 1.1953 1.25 2.8633 1.875 5 1.875 1.1953 0 2.332-0.17578 3.4062-0.53125 1.0703-0.36328 2.0625-0.89453 2.9688-1.5938v6.2656c-1.1875 0.4375-2.4023 0.76562-3.6406 0.98438-1.2305 0.22656-2.4648 0.34375-3.7031 0.34375-4.3125 0-7.6875-1.1094-10.125-3.3281s-3.6562-5.2969-3.6562-9.2344c0-3.9453 1.2188-7.0234 3.6562-9.2344 2.4375-2.2188 5.8125-3.3281 10.125-3.3281 1.25 0 2.4844 0.10938 3.7031 0.32812s2.4297 0.55469 3.6406 1z"/>
    </symbol>
    <symbol id="k" overflow="visible">
      <path d="m3.6719-33.234h7.6562v18.094l8.7969-8.7812h8.8906l-11.688 10.969 12.594 12.953h-9.2656l-9.3281-9.9688v9.9688h-7.6562z"/>
    </symbol>
    <symbol id="j" overflow="visible">
      <path d="m23.375-5.8125h-12.859l-2.0312 5.8125h-8.2656l11.812-31.891h9.7969l11.812 31.891h-8.2656zm-10.812-5.9219h8.7344l-4.3594-12.688z"/>
    </symbol>
  </defs>
  <g transform="matrix(1.201977, 0, 0, 1.201977, -61.40958, -10.844337)">
    <path d="m332.5 498.75h-96.25c-4.8281 0-8.75-3.9219-8.75-8.75v-166.25c0-14.578 9.082-28.184 15.086-35.586-2.3359-4.0703-4.707-9.8594-5.2578-17.133-0.36719-4.8203 3.2461-9.0195 8.0664-9.3789 4.8281-0.35156 9.0195 3.2539 9.3789 8.0664 0.60547 7.9453 5.0469 12.73 5.2422 12.922 3.2539 3.4375 3.2656 8.9336-0.0625 12.285-4.1641 4.1914-14.953 17.535-14.953 28.824v157.5h87.5c3.1328 0 5.9688-1.6445 7.5781-4.4102 0.76172-1.293 1.1719-2.8242 1.1719-4.3398 0-4.8203-3.9297-8.75-8.75-8.75h-35c-2.2227 0-4.4102-0.26172-6.5-0.78906-2.1719-0.54297-4.2344-1.375-6.1602-2.4688-8.332-4.5664-13.59-13.402-13.59-22.992 0-7.0977 2.7734-13.703 7.8047-18.602 4.7422-4.875 11.348-7.6484 18.445-7.6484h52.5c4.8203 0 8.75-3.9297 8.75-8.75s-3.9297-8.75-8.75-8.75c-14.473 0-26.25-11.777-26.25-26.25 0-7.0977 2.7734-13.703 7.8047-18.602 4.7422-4.875 11.348-7.6484 18.445-7.6484h43.75v-8.75c0-17.113-9.4688-33.039-26.652-44.852-2.4688-1.6992-3.9023-4.543-3.7891-7.543 0.11328-2.9922 1.7578-5.7227 4.3477-7.2344 14.438-8.3984 24.492-6.1758 34.211-4.0078 5.2891 1.1719 10.758 2.3867 18.133 2.3867 5.082 0 8.8359-0.99609 10.062-2.6758 1.0586-1.4453 1.1367-4.1484 0.24609-8.0508-22.691-8.1719-36.559-18.559-36.559-41.773 0-0.47266 0.035156-0.96094 0.12109-1.4336 0.11328-0.69141 11.023-70.016-25.348-112.88-19.406-22.855-49.184-34.441-88.523-34.441-35.98 0-70 23.391-70 48.125v122.5c0 8.0156 5.0469 13.832 13.293 22.652l1.8828 2.0195c3.2812 3.543 3.0703 9.082-0.48047 12.363-3.5508 3.2812-9.082 3.0703-12.363-0.48047l-1.8359-1.9766c-8.4414-9.0195-17.996-19.266-17.996-34.578v-122.5c0-38.676 46.113-65.625 87.5-65.625 44.758 0 79.047 13.695 101.93 40.695 39.855 47.051 30.633 117.58 29.32 126.22 0.097656 9.9414 2.5977 17.23 29.016 26.031 2.6523 0.88281 4.7266 2.9844 5.5742 5.6523 1.6094 5.0391 5.6719 17.789-1.6445 27.797-4.7773 6.5469-12.918 9.8555-24.195 9.8555-9.293 0-16.301-1.5586-21.926-2.8008-2.9062-0.64844-5.3203-1.1797-7.5703-1.4258 13.344 13.641 20.746 30.477 20.746 47.977v17.5c0 4.8281-3.9219 8.75-8.75 8.75h-52.5c-2.3359 0-4.4883 0.89062-6.0742 2.5195-1.7852 1.7422-2.6758 3.8945-2.6758 6.2305 0 4.8203 3.9297 8.75 8.75 8.75 14.473 0 26.25 11.777 26.25 26.25s-11.777 26.25-26.25 26.25h-52.5c-2.3359 0-4.4883 0.89062-6.0742 2.5195-1.7852 1.7422-2.6758 3.8945-2.6758 6.2305 0 3.1953 1.7773 6.1602 4.6445 7.7266 0.66406 0.375 1.2344 0.60547 1.8555 0.76172 0.69141 0.17578 1.4727 0.26172 2.25 0.26172h35c14.473 0 26.25 11.777 26.25 26.25 0 4.6367-1.2344 9.1953-3.5625 13.168-4.7773 8.1914-13.254 13.082-22.688 13.082z" style="fill: rgb(255, 255, 255);"/>
    <path d="m236.25 498.75h-52.5c-4.8281 0-8.75-3.9219-8.75-8.75v-157.5c0-30.285 14.848-56.086 39.715-69.012 4.2969-2.2305 9.5742-0.55078 11.805 3.7266 2.2305 4.2891 0.55859 9.5742-3.7266 11.805-18.969 9.8516-30.293 29.848-30.293 53.48v148.75h43.75c4.8281 0 8.75 3.9219 8.75 8.75s-3.9219 8.75-8.75 8.75z" style="fill: rgb(255, 255, 255);"/>
    <path d="m246.04 279.12c-4.5312 0-8.3633-3.4922-8.7148-8.0859-0.77734-10.273 2.3008-20.668 9.1523-30.906 2.6875-4.0156 8.1367-5.082 12.137-2.4062 4.0156 2.6953 5.0938 8.1289 2.4062 12.137-4.6211 6.9023-6.7188 13.578-6.2461 19.844 0.36719 4.8203-3.2461 9.0195-8.0586 9.3906-0.23047 0.019532-0.44922 0.027344-0.67578 0.027344z" style="fill: rgb(255, 255, 255);"/>
    <path d="m273.75 257.02c-4.5586 0-8.8906-1.043-12.703-1.9609-2.8125-0.67188-5.4531-1.3125-7.3008-1.3125-27.633 0-35-52.254-35-83.125 0-42.402 16.93-74.375 39.375-74.375 23.836 0 48.125 39.742 48.125 78.75 0 58.258-9.4141 82.023-32.496 82.023zm-15.629-143.27c-8.9258 0-21.875 22.156-21.875 56.875 0 39.453 10.535 65.625 17.5 65.625 3.9219 0 7.7188 0.91016 11.383 1.793 3.1484 0.76172 6.125 1.4688 8.6094 1.4688 13.055 0.011719 15.008-40.414 15.008-64.512 0-32.898-20.547-61.25-30.625-61.25z" style="fill: rgb(255, 255, 255);"/>
    <path d="m525 533.75h-367.5c-14.473 0-26.25-11.777-26.25-26.25 0-7.0977 2.7734-13.703 7.8047-18.602 4.7422-4.875 11.348-7.6484 18.445-7.6484h175c3.1328 0 5.9688-1.6445 7.5781-4.4102 0.76172-1.293 1.1719-2.8242 1.1719-4.3398 0-4.8203-3.9297-8.75-8.75-8.75h-35c-2.2227 0-4.4102-0.26172-6.5-0.78906-2.1719-0.54297-4.2344-1.375-6.1602-2.4688-8.332-4.5664-13.59-13.402-13.59-22.992 0-7.0977 2.7734-13.703 7.8047-18.602 4.7422-4.875 11.348-7.6484 18.445-7.6484h52.5c4.8203 0 8.75-3.9297 8.75-8.75s-3.9297-8.75-8.75-8.75c-14.473 0-26.25-11.777-26.25-26.25 0-7.0977 2.7734-13.703 7.8047-18.602 4.7422-4.875 11.348-7.6484 18.445-7.6484h175c14.473 0 26.25 11.777 26.25 26.25s-11.777 26.25-26.25 26.25h-35c-2.3359 0-4.4883 0.89062-6.0742 2.5195-1.7852 1.7422-2.6758 3.8945-2.6758 6.2305 0 4.8203 3.9297 8.75 8.75 8.75h87.5c14.473 0 26.25 11.777 26.25 26.25s-11.777 26.25-26.25 26.25h-78.75c-2.3359 0-4.4883 0.89062-6.0742 2.5195-1.7852 1.7422-2.6758 3.8945-2.6758 6.2305 0 4.8203 3.9297 8.75 8.75 8.75h26.25c14.473 0 26.25 11.777 26.25 26.25s-11.777 26.25-26.25 26.25zm-367.5-35c-2.3359 0-4.4883 0.89062-6.0742 2.5195-1.7852 1.7422-2.6758 3.8945-2.6758 6.2305 0 4.8203 3.9297 8.75 8.75 8.75h367.5c4.8203 0 8.75-3.9297 8.75-8.75s-3.9297-8.75-8.75-8.75h-26.25c-14.473 0-26.25-11.777-26.25-26.25 0-7.0977 2.7734-13.703 7.8047-18.602 4.7422-4.875 11.348-7.6484 18.445-7.6484h78.75c4.8203 0 8.75-3.9297 8.75-8.75s-3.9297-8.75-8.75-8.75h-87.5c-14.473 0-26.25-11.777-26.25-26.25 0-7.0977 2.7734-13.703 7.8047-18.602 4.7422-4.875 11.348-7.6484 18.445-7.6484h35c4.8203 0 8.75-3.9297 8.75-8.75s-3.9297-8.75-8.75-8.75h-175c-2.3359 0-4.4883 0.89062-6.0742 2.5195-1.7852 1.7422-2.6758 3.8945-2.6758 6.2305 0 4.8203 3.9297 8.75 8.75 8.75 14.473 0 26.25 11.777 26.25 26.25s-11.777 26.25-26.25 26.25h-52.5c-2.3359 0-4.4883 0.89062-6.0742 2.5195-1.7852 1.7422-2.6758 3.8945-2.6758 6.2305 0 3.1953 1.7773 6.1602 4.6445 7.7266 0.66406 0.375 1.2344 0.60547 1.8555 0.76172 0.69141 0.17578 1.4727 0.26172 2.25 0.26172h35c14.473 0 26.25 11.777 26.25 26.25 0 4.6367-1.2344 9.1953-3.5625 13.168-4.7773 8.1914-13.254 13.082-22.688 13.082z" style="fill: rgb(255, 255, 255);"/>
    <path d="m566.74 419.39c-0.91797 0-1.8555-0.14844-2.7656-0.44531-3.9883-1.3281-6.4648-5.293-5.9062-9.4688 1.2852-9.5898 1.9336-19.293 1.9336-28.848 0-96.398-64.871-181.44-157.76-206.82-4.6641-1.2773-7.4102-6.0898-6.1328-10.754 1.2773-4.6562 6.0742-7.4023 10.754-6.1328 95.254 26.023 163.27 110.06 170.08 207.55 6.1406-20.188 9.3086-41.309 9.3086-62.598 0-118.2-96.172-214.38-214.38-214.38-1.0508 0.007812-2.0898 0-3.125 0.007812l-1.793 2.3008c-2.9766 3.8047-8.4688 4.4883-12.285 1.5156-3.8164-2.9766-4.4883-8.4688-1.5156-12.285l4.2969-5.5039c1.5234-1.9531 3.8047-3.168 6.2734-3.3438 2.6523-0.18359 5.4023-0.19141 8.1484-0.19141 127.86 0 231.88 104.02 231.88 231.88 0 39.621-10.16 78.707-29.375 113.03-1.582 2.8359-4.5391 4.4805-7.6367 4.4805z" style="fill: rgb(255, 255, 255);"/>
    <path d="m105 420.18c-1.8828 0-3.7812-0.60547-5.3711-1.8477-3.8164-2.9648-4.4961-8.4688-1.5234-12.277l84.57-108.42c2.9766-3.8047 8.4883-4.4805 12.285-1.5156 3.8164 2.9766 4.4883 8.4688 1.5156 12.285l-84.57 108.41c-1.7344 2.207-4.3086 3.3633-6.9062 3.3633z" style="fill: rgb(255, 255, 255);"/>
    <path d="m364.35 87.676c-1.9961 0-4-0.67188-5.6445-2.0664-3.6914-3.1133-4.1641-8.6367-1.043-12.328l37.055-43.926c3.1055-3.6836 8.6289-4.1719 12.328-1.043 3.6914 3.1133 4.1641 8.6367 1.043 12.328l-37.055 43.926c-1.7227 2.0508-4.1992 3.1094-6.6836 3.1094z" style="fill: rgb(255, 255, 255);"/>
  </g>
</svg>